<?xml version="1.0" encoding="utf-8"?>
<!-- Generator: Adobe Illustrator 26.0.0, SVG Export Plug-In . SVG Version: 6.00 Build 0)  -->
<svg version="1.1" id="Layer_1" xmlns="http://www.w3.org/2000/svg" xmlns:xlink="http://www.w3.org/1999/xlink" x="0px" y="0px"
	 viewBox="0 0 800 800" style="enable-background:new 0 0 800 800;" xml:space="preserve">
<style type="text/css">
	.st0{fill:#F2F4F7;}
	.st1{fill:#323842;}
</style>
<circle class="st0" cx="400" cy="400" r="400"/>
<path class="st1" d="M584.9,530.4c0,0-2.2,32.9-32.1,32.9c-23.1,0-38.8-17.6-53.6-40.5c41.9-36.6,68.5-91.2,68.5-152.3
	c0-110.2-86.6-199.5-193.5-199.5s-193.5,89.3-193.5,199.5S267.4,570,374.2,570c19.4,0,38.1-3,55.8-8.4
	c22.3,35.5,50.7,67.4,95.1,67.4c90.4,0,94.1-98.6,94.1-98.6L584.9,530.4L584.9,530.4L584.9,530.4z M374.2,537.1
	c-62.3,0-112.8-74.6-112.8-166.6s50.5-166.6,112.8-166.6S487,278.5,487,370.5c0,36.6-8,70.4-21.5,97.9
	c-15.3-21.8-33.7-40.4-59.9-46.3c-46.6-10.5-86.7,10.5-99.4,20.9l12,24.7c0,0,12.1-6.9,42,0c18.9,4.4,33.5,30.6,50.4,60.6
	C399.2,534,387,537.1,374.2,537.1z"/>
</svg>
